<svg xmlns="http://www.w3.org/2000/svg" enable-background="new 0 0 50 50" viewBox="0 0 50 50" id="chess-piece"><path d="M44.99093,42.62c-1.78003-2.03003-2.38989-5.75-2.91992-9.03003c-0.27002-1.61987-0.52002-3.13989-0.88989-4.45996
		c-1.14014-4.06995-2.51025-7.51001-4.19019-10.53003c-3.07983-5.51001-7.18994-9.17993-11.87988-10.66992
		C24.26095,4.91004,21.24093,1.5,17.64108,1.01001c-0.28003-0.03992-0.57007,0.04004-0.79004,0.2301
		C16.63107,1.43006,16.50094,1.71009,16.50094,2v5.65002c-0.6001,0.30005-1.20996,0.76001-1.72998,1.51001l-6.44995,9.34997
		c-0.27002,0.22009-0.67993,0.45007-1.11011,0.71008c-1.52979,0.87988-4.07983,2.36987-2.94995,5.22998
		c0.02002,0.05994,0.02002,0.05994,0.05005,0.11987c0.04004,0.07007,0.08008,0.20007,0.12988,0.3501
		C4.79098,26,5.62106,28.53003,7.85104,28.53003c0.38989,0,0.7998-0.07996,1.21997-0.25
		c1.12988-0.46997,2.26001-0.83997,3.46997-1.10999l4.12012-0.22998c2.33984-0.14001,3.66992-2.09009,4.08984-3.19006
		c0.53003-0.39001,1.13013-0.15002,1.54004,0.49011c0.33008,0.50989,0.55005,1.36987,0.15991,2.25L17.02096,39.25
		c-1.1499,2.70007-1.77002,5.72009-1.79004,8.74011c0,0.2699,0.11011,0.5199,0.29004,0.70996
		C15.7109,48.89002,15.97091,49,16.23092,49h26.11011c1.45996,0,2.72998-0.82996,3.32983-2.17004
		C46.311,45.43006,46.061,43.82996,44.99093,42.62z M18.76559,15.63831h-1.25977c-0.55273,0-1-0.44775-1-1s0.44727-1,1-1h1.25977
		c0.55273,0,1,0.44775,1,1S19.31833,15.63831,18.76559,15.63831z"></path></svg>